<svg xmlns="http://www.w3.org/2000/svg" viewBox="0 0 272.71 164.69"><defs><style>.cls-1{fill:#1b1918;fill-rule:evenodd;}</style></defs><title>logo</title><g id="Layer_2" data-name="Layer 2"><g id="Layer_1-2" data-name="Layer 1"><path class="cls-1" d="M174,116.19a54.51,54.51,0,0,1-3.8,7.65,51.29,51.29,0,0,1-4.39,6.2,28.64,28.64,0,0,1-4.18,4.17,5.86,5.86,0,0,1-3.2,1.52.61.61,0,0,1-.5-.25,1.06,1.06,0,0,1-.22-.71,8.11,8.11,0,0,1,.8-2.82c.53-1.12,1.11-2.37,1.8-3.74a40.17,40.17,0,0,0,1.78-4.17,12.9,12.9,0,0,0,.81-4.11,4.24,4.24,0,0,0-1.13-2.9,7.54,7.54,0,0,0-2.65-1.78,13.36,13.36,0,0,0-3-.87,10.09,10.09,0,0,1-.47,4.16,29.41,29.41,0,0,1-2,4.93,37.54,37.54,0,0,1-2.92,4.7,20.68,20.68,0,0,1-3.15,3.52,4.76,4.76,0,0,1-2.79,1.39.88.88,0,0,1-.63-.26,1.84,1.84,0,0,1-.34-1.18,13.28,13.28,0,0,1,.54-3.19A31.05,31.05,0,0,1,146,124a29.82,29.82,0,0,1,2.6-4.91,23.88,23.88,0,0,1,3.55-4.43,14.87,14.87,0,0,1,4.53-3,10.47,10.47,0,0,1,5.4-.73,8.49,8.49,0,0,0-6.06-2.06,14.78,14.78,0,0,0-6.74,2.06A26.22,26.22,0,0,0,143,116a26.87,26.87,0,0,0-4.6,6.86,18.14,18.14,0,0,0-1.79,7.48,6.44,6.44,0,0,0,1,3.54,6.09,6.09,0,0,0,2.29,2.12,5.53,5.53,0,0,0,2.65.73,7.38,7.38,0,0,0,3.8-1.2,16.33,16.33,0,0,0,3.54-3.07,33.41,33.41,0,0,0,3.16-4.18c-.12.67-.24,1.33-.32,2a10.85,10.85,0,0,0-.16,1.66,7.19,7.19,0,0,0,1.42,4.73,4.52,4.52,0,0,0,3.52,1.55,7.52,7.52,0,0,0,4-1.53,24.29,24.29,0,0,0,4.69-4.21,46.06,46.06,0,0,0,4.74-6.37,56.32,56.32,0,0,0,4.21-8,1.29,1.29,0,0,0,0-1.27A1.26,1.26,0,0,0,174,116.19Zm-88.2-2A16.71,16.71,0,0,1,78,112.31a13.61,13.61,0,0,1-5.27-5,13.91,13.91,0,0,1-2-7.29,14.13,14.13,0,0,1,2-6.94,24.28,24.28,0,0,1,5.46-6.36,38.16,38.16,0,0,1,8.23-5.25,48.33,48.33,0,0,1,10.27-3.55,52.15,52.15,0,0,1,11.58-1.32,41.27,41.27,0,0,1,13,1.89,24,24,0,0,1,8.71,5,19.59,19.59,0,0,1,4.88,7,20.69,20.69,0,0,1,1.53,8,24.29,24.29,0,0,1-2.1,10.16,21.51,21.51,0,0,1-5.83,7.56,26.82,26.82,0,0,1-8.87,4.82,39.61,39.61,0,0,1-11.2,2,88.05,88.05,0,0,0,2.24-9.26,42,42,0,0,0,.78-7.52,6.44,6.44,0,0,0-.92-3.52,5.21,5.21,0,0,0-2.34-2,7.28,7.28,0,0,0-3-.62,15.28,15.28,0,0,1-1.47,2.85,25.92,25.92,0,0,1-2.88,3.68,27.33,27.33,0,0,1-4.06,3.66A21.54,21.54,0,0,1,91.72,113,16.69,16.69,0,0,1,85.78,114.14ZM145.15,100a21.13,21.13,0,0,0-2.2-9.38,24,24,0,0,0-6.69-8.17,34.38,34.38,0,0,0-11.46-5.74,57.83,57.83,0,0,0-16.46-2.18,53.78,53.78,0,0,0-13,1.61,51.58,51.58,0,0,0-11.49,4.41A42.12,42.12,0,0,0,74.68,87a29,29,0,0,0-6.11,7.82,18.26,18.26,0,0,0-2.22,8.45,12.73,12.73,0,0,0,7.54,11.89,20.11,20.11,0,0,0,8.51,1.74,26.73,26.73,0,0,0,9.28-1.68,27,27,0,0,0,7.4-4.27,29.4,29.4,0,0,0,5.4-5.63,128.21,128.21,0,0,1-2.63,12.59c-1.15,4.34-2.49,8.65-4.08,12.91a105.76,105.76,0,0,1-5.39,12,60,60,0,0,1-6.56,10,30.59,30.59,0,0,1-7.54,6.87,16.24,16.24,0,0,1-8.43,2.55,16.4,16.4,0,0,1-7.78-1.82,12.14,12.14,0,0,1-4.94-4.95,15,15,0,0,1-1.75-7.36,16.3,16.3,0,0,1,1.43-7,14,14,0,0,1,3.64-4.77,15.42,15.42,0,0,1,9.76-3.58,18.26,18.26,0,0,1,7,1.29,15.49,15.49,0,0,1,5.72,3.9,8.44,8.44,0,0,0-.67-3.28,9,9,0,0,0-2-3,10.09,10.09,0,0,0-3.38-2.17,13.33,13.33,0,0,0-4.81-.84,17.43,17.43,0,0,0-4.91.74,20,20,0,0,0-5,2.23,19.18,19.18,0,0,0-4.41,3.82A17.86,17.86,0,0,0,54.53,141a20.94,20.94,0,0,0-1.2,7.16,15.78,15.78,0,0,0,2.41,8.63,16,16,0,0,0,6.51,5.79,21.72,21.72,0,0,0,9.66,2.11A21.34,21.34,0,0,0,80.22,163a29.53,29.53,0,0,0,7.48-4.66,46.64,46.64,0,0,0,6.59-6.9A69.27,69.27,0,0,0,99.91,143a89.34,89.34,0,0,0,4.59-9.25,98.48,98.48,0,0,0,3.48-9.36,10.33,10.33,0,0,1,4.26,4,19.22,19.22,0,0,1,2.16,5.9,66.43,66.43,0,0,1,1,6.94q.36,3.63.85,7.21a33.11,33.11,0,0,0,1.63,6.66,14.57,14.57,0,0,0,3.32,5.35,12.64,12.64,0,0,0,6,3.2,26.92,26.92,0,0,0,9.6.28,13.81,13.81,0,0,1-5.84-2.61,13.12,13.12,0,0,1-3.47-4.45,25.93,25.93,0,0,1-2-5.73c-.46-2.07-.89-4.2-1.25-6.42s-.85-4.38-1.39-6.53a27,27,0,0,0-2.33-6.08,16.38,16.38,0,0,0-4.1-5,18.16,18.16,0,0,0-6.7-3.43,34.12,34.12,0,0,0,9.89.16,35.41,35.41,0,0,0,9.54-2.61,31.52,31.52,0,0,0,8.15-5A23.3,23.3,0,0,0,143,109,19.85,19.85,0,0,0,145.15,100Zm36.07-45.85a10.52,10.52,0,0,1,.81-3.91,9.61,9.61,0,0,1,2-3.21,4.21,4.21,0,0,1,2.82-1.33,2.26,2.26,0,0,1,1.91,1.17,5.3,5.3,0,0,1,.75,2.81,16.47,16.47,0,0,1-.43,3.46A31.69,31.69,0,0,1,188,57.23a37.7,37.7,0,0,1-1.78,4.18,8.23,8.23,0,0,1-3.74-3.07A7.76,7.76,0,0,1,181.22,54.18Zm20.27-42A3.57,3.57,0,0,1,204,13a2.84,2.84,0,0,1,1,2.28,8,8,0,0,1-1.29,4,15.34,15.34,0,0,1-3.52,3.9,18.83,18.83,0,0,1-5.22,3,18.34,18.34,0,0,1-6.38,1.17c-.49,0-1,0-1.42,0a9.65,9.65,0,0,1-1.36-.1A62.53,62.53,0,0,1,191,19.49a28.3,28.3,0,0,1,5.34-5.34A9.19,9.19,0,0,1,201.49,12.19Zm5.19,38.37A37.71,37.71,0,0,1,202,56.87a19.13,19.13,0,0,1-4.39,3.54,13.27,13.27,0,0,1-4.1,1.49A22,22,0,0,0,195.92,57a15.78,15.78,0,0,0,.86-5,8.82,8.82,0,0,0-.54-3,9.37,9.37,0,0,0-1.64-2.75,8.15,8.15,0,0,0-2.81-2,9.74,9.74,0,0,0-3.94-.79,7.92,7.92,0,0,0-4.62,1.48,10,10,0,0,0-3.13,3.9,12.6,12.6,0,0,0-1.17,5.36,9.79,9.79,0,0,0,.67,3.57,8.92,8.92,0,0,0,2,3.18,10.17,10.17,0,0,0,3.56,2.29,23.33,23.33,0,0,1-2.27,3.24,11,11,0,0,1-2.46,2.21,4.61,4.61,0,0,1-2.51.83,2.51,2.51,0,0,1-2.06-.93,4.77,4.77,0,0,1-1-2.25,14.87,14.87,0,0,1-.22-2.86,48.56,48.56,0,0,1,.74-8,78.12,78.12,0,0,1,2.07-8.74c.89-3,1.93-5.94,3.13-8.86s2.52-5.7,3.95-8.38h2.29a25.82,25.82,0,0,0,8.34-1.33,21.92,21.92,0,0,0,6.36-3.37,16.31,16.31,0,0,0,4-4.57A9.79,9.79,0,0,0,207,15.32a5,5,0,0,0-1.55-3.78,5.78,5.78,0,0,0-4-1.41,16.69,16.69,0,0,0-7.82,2.14A32.24,32.24,0,0,0,186.19,18a57.9,57.9,0,0,0-6.78,8.41,45.57,45.57,0,0,1-10.36-3.64,43.14,43.14,0,0,1-8.56-5.58,29.37,29.37,0,0,1-5.94-6.71,10.24,10.24,0,0,0,.65,6.67,14,14,0,0,0,4.63,5.4,28.46,28.46,0,0,0,7.82,3.94,49.37,49.37,0,0,0,10.19,2.33A75.78,75.78,0,0,0,172.67,39a70.08,70.08,0,0,0-3.38,10.52,46,46,0,0,0-1.22,9.85,19.14,19.14,0,0,0,.54,4.54,11.61,11.61,0,0,0,1.73,3.9,8.46,8.46,0,0,0,3.08,2.73,9.88,9.88,0,0,0,4.54,1,14.7,14.7,0,0,0,5-1,20.37,20.37,0,0,0,4.7-2.62,25.12,25.12,0,0,0,4.14-3.78,18.32,18.32,0,0,0,4.83-1.28,20.47,20.47,0,0,0,5.52-3.55,28,28,0,0,0,5.46-6.76,1.57,1.57,0,0,0,0-1.24A1.25,1.25,0,0,0,206.68,50.56ZM153.22,73a8,8,0,0,0,4.15-1.49,24.61,24.61,0,0,0,4.48-3.79,55.93,55.93,0,0,0,4.35-5.08c1.39-1.81,2.63-3.59,3.76-5.37s2-3.32,2.69-4.67a1.3,1.3,0,0,0,0-1.24,1.46,1.46,0,0,0-.76-.8c-1.27,2.24-2.66,4.5-4.2,6.71s-3.1,4.26-4.65,6.11a39.62,39.62,0,0,1-4.26,4.4,5.86,5.86,0,0,1-3.06,1.72.89.89,0,0,1-.7-.26.93.93,0,0,1-.26-.71,8.93,8.93,0,0,1,.74-3c.46-1.21,1.07-2.5,1.76-3.9s1.4-2.8,2.1-4.23a38,38,0,0,0,1.77-4.08,10.78,10.78,0,0,0,.74-3.46,4.06,4.06,0,0,0-1.1-2.73,6.93,6.93,0,0,0-2.7-1.82,9.57,9.57,0,0,0-3.43-.64,14.85,14.85,0,0,1-.93,4.4c-.58,1.64-1.26,3.38-2,5.26a56.4,56.4,0,0,0-2,5.88,25.23,25.23,0,0,0-.91,6.3A8.45,8.45,0,0,0,150,71.26,3.79,3.79,0,0,0,153.22,73Zm6-32.82A4.67,4.67,0,0,0,162.34,39a7.21,7.21,0,0,0,1.93-2.77,9.41,9.41,0,0,0,.66-3.43,13.89,13.89,0,0,1-2.73-.14c-.93-.11-1.77-.19-2.57-.21a5.13,5.13,0,0,0-2,.37,3.72,3.72,0,0,0-1.6,1.29,4,4,0,0,0-.67,2.31,3.74,3.74,0,0,0,1.07,2.74A4,4,0,0,0,159.26,40.18Zm-29.8,14a10.52,10.52,0,0,1,.81-3.91,9.32,9.32,0,0,1,2-3.21,4.17,4.17,0,0,1,2.81-1.33A2.26,2.26,0,0,1,137,46.9a5.22,5.22,0,0,1,.75,2.81,16.4,16.4,0,0,1-.42,3.46,35.3,35.3,0,0,1-1.17,4.06,39.88,39.88,0,0,1-1.8,4.18,8.34,8.34,0,0,1-3.74-3.07A7.93,7.93,0,0,1,129.46,54.18Zm20.27-42a3.58,3.58,0,0,1,2.51.85,2.81,2.81,0,0,1,1,2.28,8,8,0,0,1-1.28,4,15.34,15.34,0,0,1-3.52,3.9,18.89,18.89,0,0,1-5.23,3,18.2,18.2,0,0,1-6.37,1.17c-.48,0-1,0-1.43,0a9.36,9.36,0,0,1-1.34-.1,62.5,62.5,0,0,1,5.16-7.78,28.33,28.33,0,0,1,5.35-5.34A9.19,9.19,0,0,1,149.73,12.19Zm5.19,38.37a37.7,37.7,0,0,1-4.67,6.31,18.69,18.69,0,0,1-4.38,3.54,13.37,13.37,0,0,1-4.1,1.49A22,22,0,0,0,144.16,57a15.79,15.79,0,0,0,.87-5,8.6,8.6,0,0,0-.55-3,9.2,9.2,0,0,0-1.65-2.75,8.07,8.07,0,0,0-2.79-2,9.77,9.77,0,0,0-3.94-.79,7.93,7.93,0,0,0-4.63,1.48,10.3,10.3,0,0,0-3.14,3.9,12.75,12.75,0,0,0-1.17,5.36,10,10,0,0,0,.67,3.57,9.23,9.23,0,0,0,2,3.18,10.08,10.08,0,0,0,3.56,2.29,23.35,23.35,0,0,1-2.28,3.24,11,11,0,0,1-2.44,2.21,4.71,4.71,0,0,1-2.51.83,2.55,2.55,0,0,1-2.08-.93,4.77,4.77,0,0,1-1-2.25,14.87,14.87,0,0,1-.22-2.86,47.56,47.56,0,0,1,.75-8,78.12,78.12,0,0,1,2.07-8.74,91.62,91.62,0,0,1,3.14-8.86c1.21-2.91,2.51-5.7,3.94-8.38h2.29a25.86,25.86,0,0,0,8.34-1.33,22.05,22.05,0,0,0,6.36-3.37,16.31,16.31,0,0,0,4-4.57,9.79,9.79,0,0,0,1.41-4.85,5,5,0,0,0-1.55-3.78,5.77,5.77,0,0,0-4-1.41,16.65,16.65,0,0,0-7.82,2.14A32,32,0,0,0,134.43,18a57.9,57.9,0,0,0-6.78,8.41,45.4,45.4,0,0,1-10.36-3.64,44.11,44.11,0,0,1-8.57-5.58,29.26,29.26,0,0,1-5.92-6.71,10.18,10.18,0,0,0,.64,6.67,14,14,0,0,0,4.62,5.4,29,29,0,0,0,7.82,3.94,49.72,49.72,0,0,0,10.21,2.33A73.56,73.56,0,0,0,120.91,39a67.81,67.81,0,0,0-3.37,10.52,44.8,44.8,0,0,0-1.23,9.85,18.64,18.64,0,0,0,.54,4.54,11.81,11.81,0,0,0,1.73,3.9,8.38,8.38,0,0,0,3.08,2.73,9.89,9.89,0,0,0,4.55,1,14.73,14.73,0,0,0,5-1,20.58,20.58,0,0,0,4.7-2.62,25.18,25.18,0,0,0,4.15-3.78,18.62,18.62,0,0,0,4.83-1.28,20.39,20.39,0,0,0,5.5-3.55,28,28,0,0,0,5.48-6.76,1.53,1.53,0,0,0,0-1.24A1.26,1.26,0,0,0,154.92,50.56ZM119.68,51a53.85,53.85,0,0,1-3.8,7.64,50.65,50.65,0,0,1-4.38,6.21,28.63,28.63,0,0,1-4.18,4.17,6,6,0,0,1-3.2,1.53.64.64,0,0,1-.51-.26,1.09,1.09,0,0,1-.21-.71,7.74,7.74,0,0,1,.8-2.81c.52-1.13,1.11-2.38,1.79-3.75a38.35,38.35,0,0,0,1.79-4.18,13.1,13.1,0,0,0,.8-4.1,4.26,4.26,0,0,0-1.12-2.9,7.84,7.84,0,0,0-2.66-1.79,13.7,13.7,0,0,0-3-.86,10.24,10.24,0,0,1-.46,4.16,30.64,30.64,0,0,1-2,4.93A40.36,40.36,0,0,1,96.44,63a20.7,20.7,0,0,1-3.16,3.52,4.85,4.85,0,0,1-2.79,1.39.89.89,0,0,1-.63-.27,1.8,1.8,0,0,1-.34-1.18,12.91,12.91,0,0,1,.55-3.18,29.27,29.27,0,0,1,1.59-4.5,31,31,0,0,1,2.59-4.91,24.63,24.63,0,0,1,3.56-4.42,14.92,14.92,0,0,1,4.52-3,10.61,10.61,0,0,1,5.41-.72,8.53,8.53,0,0,0-6.07-2.07,14.83,14.83,0,0,0-6.74,2.07,26.17,26.17,0,0,0-6.26,5.09,27.22,27.22,0,0,0-4.59,6.85,18.15,18.15,0,0,0-1.8,7.48,6.5,6.5,0,0,0,1,3.54,6.11,6.11,0,0,0,2.29,2.13,5.66,5.66,0,0,0,2.66.72A7.33,7.33,0,0,0,92,70.35a16.81,16.81,0,0,0,3.54-3.07,32.41,32.41,0,0,0,3.15-4.18c-.12.66-.24,1.33-.32,1.95a11,11,0,0,0-.16,1.68,7.08,7.08,0,0,0,1.43,4.71A4.52,4.52,0,0,0,103.16,73a7.6,7.6,0,0,0,4-1.54,24.14,24.14,0,0,0,4.68-4.2,46.9,46.9,0,0,0,4.75-6.37,56.91,56.91,0,0,0,4.2-8,1.28,1.28,0,0,0,0-1.26A1.26,1.26,0,0,0,119.68,51ZM12.78,95.19a11,11,0,0,1-4.59-.94A7.45,7.45,0,0,1,5,91.48,8.28,8.28,0,0,1,3.74,87a13.39,13.39,0,0,1,2.67-7.84,30.48,30.48,0,0,1,7.3-6.92A79.13,79.13,0,0,1,24.59,66c4.12-2,8.59-3.92,13.35-5.82s9.71-3.78,14.78-5.64a105.13,105.13,0,0,1-5.65,12.25A86,86,0,0,1,40,77.87a60.43,60.43,0,0,1-8.24,9A36.79,36.79,0,0,1,22.6,93,23.47,23.47,0,0,1,12.78,95.19ZM116.79,3a6.94,6.94,0,0,1,3.62,1,6.74,6.74,0,0,1,2.39,2.63,8.62,8.62,0,0,1,.86,3.88,10.57,10.57,0,0,1-2.16,5.9,33.07,33.07,0,0,1-6,6.25,79.23,79.23,0,0,1-9,6.35c-3.46,2.14-7.2,4.21-11.26,6.26s-8.29,4-12.68,5.89a115.37,115.37,0,0,1,7.5-15,80.17,80.17,0,0,1,8.74-12.11A42.33,42.33,0,0,1,107.94,6,16.89,16.89,0,0,1,116.79,3Zm8.93,7.48a10.44,10.44,0,0,0-1.13-4.89,8.06,8.06,0,0,0-3.13-3.31,9.26,9.26,0,0,0-4.67-1.2,21.78,21.78,0,0,0-9.09,2.23,43,43,0,0,0-9.47,6.22A73.82,73.82,0,0,0,89,19a93.43,93.43,0,0,0-8.3,12A100.19,100.19,0,0,0,74,44.64c-2,.78-4.13,1.57-6.22,2.34s-4.16,1.52-6.2,2.25a81.11,81.11,0,0,0,2.16-9.91A61.86,61.86,0,0,0,64.43,30a39.93,39.93,0,0,0-3-16.31A22.58,22.58,0,0,0,52.87,3.52,24.35,24.35,0,0,0,39.69,0a37,37,0,0,0-12,2.05A44.8,44.8,0,0,0,8,15.67a37.37,37.37,0,0,0-5.88,9.64A27.12,27.12,0,0,0,0,35.6a18.34,18.34,0,0,0,1.87,8.46,12.54,12.54,0,0,0,5.39,5.35,18.43,18.43,0,0,0,8.55,1.87,21.1,21.1,0,0,0,5.89-.94A29.46,29.46,0,0,0,28,47.54a26.73,26.73,0,0,0,5.73-4.61,21.37,21.37,0,0,0,4.13-6.38,58.93,58.93,0,0,1-7.12,5.6,31.27,31.27,0,0,1-7.21,3.54,24.3,24.3,0,0,1-7.75,1.25q-6.64,0-10.18-3T2.05,35.6A25,25,0,0,1,4.1,25.94a36,36,0,0,1,5.61-9.09,43.39,43.39,0,0,1,8.34-7.62A41.38,41.38,0,0,1,28.31,4,34.72,34.72,0,0,1,39.69,2.05a21.09,21.09,0,0,1,10.4,2.31,15,15,0,0,1,6.52,7.52Q58.86,17,58.87,25.45a64.48,64.48,0,0,1-1.38,12.76,97.36,97.36,0,0,1-3.92,13.91c-5.29,2-10.46,3.9-15.5,5.9s-9.74,4-14.13,6.15a83,83,0,0,0-11.58,6.69,31.74,31.74,0,0,0-7.8,7.51A14.88,14.88,0,0,0,1.69,87a11.64,11.64,0,0,0,1.75,6.42,11,11,0,0,0,4.62,4.1,15.25,15.25,0,0,0,6.66,1.43A30.66,30.66,0,0,0,27,96.26,43.24,43.24,0,0,0,38.07,89a66.79,66.79,0,0,0,9.58-10.69,84.2,84.2,0,0,0,7.73-12.93,93.59,93.59,0,0,0,5.55-14,.78.78,0,0,0,.36-.08,3,3,0,0,0,.37-.16c1.86-.66,3.76-1.33,5.68-2s3.84-1.4,5.78-2.18A85.75,85.75,0,0,0,69,61a72.65,72.65,0,0,0-1.48,14.21,37.62,37.62,0,0,0,1,8.67,23.72,23.72,0,0,0,2.71,6.84,13.57,13.57,0,0,0,4.19,4.49,9.88,9.88,0,0,0,5.43,1.61,12.69,12.69,0,0,1-3.53-4,21.35,21.35,0,0,1-2.2-6,33.18,33.18,0,0,1-.79-7.54,83.21,83.21,0,0,1,.89-12A101.23,101.23,0,0,1,77.7,55.2a119.76,119.76,0,0,1,3.86-11.76c4.66-2,9.15-4.06,13.49-6.24s8.35-4.39,12.07-6.65a85.45,85.45,0,0,0,9.73-6.82A35.19,35.19,0,0,0,123.34,17,11.45,11.45,0,0,0,125.72,10.49Z"/><path class="cls-1" d="M256.76,116.19a55.62,55.62,0,0,1-3.8,7.65,54.86,54.86,0,0,1-4.39,6.2,29.66,29.66,0,0,1-4.18,4.17,5.92,5.92,0,0,1-3.2,1.52.61.61,0,0,1-.5-.25,1,1,0,0,1-.23-.71,8.39,8.39,0,0,1,.81-2.82c.52-1.12,1.1-2.37,1.79-3.74a40.25,40.25,0,0,0,1.79-4.17,13.16,13.16,0,0,0,.8-4.11,4.28,4.28,0,0,0-1.12-2.9,7.87,7.87,0,0,0-2.66-1.78,13.14,13.14,0,0,0-3-.87,10.24,10.24,0,0,1-.46,4.16,29.41,29.41,0,0,1-2,4.93,38.69,38.69,0,0,1-2.91,4.7,21.15,21.15,0,0,1-3.17,3.52,4.68,4.68,0,0,1-2.79,1.39.88.88,0,0,1-.62-.26,1.78,1.78,0,0,1-.35-1.18,12.9,12.9,0,0,1,.55-3.19,29.89,29.89,0,0,1,1.59-4.49,30.53,30.53,0,0,1,2.59-4.91,24.78,24.78,0,0,1,3.56-4.43,14.63,14.63,0,0,1,4.53-3,10.49,10.49,0,0,1,5.41-.73,8.53,8.53,0,0,0-6.08-2.06,14.78,14.78,0,0,0-6.73,2.06,26,26,0,0,0-6.25,5.09,26.65,26.65,0,0,0-4.61,6.86,18.31,18.31,0,0,0-1.8,7.48,6.52,6.52,0,0,0,1,3.54A6.32,6.32,0,0,0,222.6,136a5.57,5.57,0,0,0,2.66.73,7.44,7.44,0,0,0,3.8-1.2,16.81,16.81,0,0,0,3.54-3.07,33.41,33.41,0,0,0,3.16-4.18c-.12.67-.24,1.33-.32,2a9.83,9.83,0,0,0-.17,1.66,7.19,7.19,0,0,0,1.43,4.73,4.52,4.52,0,0,0,3.52,1.55,7.55,7.55,0,0,0,4-1.53,24.59,24.59,0,0,0,4.69-4.21,45.27,45.27,0,0,0,4.74-6.37,57.36,57.36,0,0,0,4.21-8,1.29,1.29,0,0,0,0-1.27A1.28,1.28,0,0,0,256.76,116.19Zm-29.81-1a67.27,67.27,0,0,1-4.67,7.64,73.12,73.12,0,0,1-5.2,6.55,38,38,0,0,1-4.85,4.59,6.77,6.77,0,0,1-3.5,1.72.7.7,0,0,1-.65-.33,2,2,0,0,1-.2-1,10.16,10.16,0,0,1,.83-3.6,36.71,36.71,0,0,1,2-4.06c.77-1.41,1.58-2.81,2.36-4.23a35.67,35.67,0,0,0,2-4.06,10.21,10.21,0,0,0,.83-3.6,6.29,6.29,0,0,0-.89-3.31,6,6,0,0,0-2.25-2.26,6.2,6.2,0,0,0-3.13-.82,9.27,9.27,0,0,0-5,1.77,26.76,26.76,0,0,0-5.27,4.74,3.92,3.92,0,0,0-1.27-2.79,6.78,6.78,0,0,0-3.15-1.63,7.9,7.9,0,0,0-4,.2,6.94,6.94,0,0,1-.21,3.64c-.4,1.43-1,3-1.63,4.87a59.13,59.13,0,0,0-1.86,6,28.61,28.61,0,0,0-.89,6.89,6.4,6.4,0,0,0,1.07,3.86,3,3,0,0,0,2.43,1.33,53.93,53.93,0,0,1,3.35-8.91,59.63,59.63,0,0,1,4.25-7.44,46.56,46.56,0,0,1,4.4-5.66,25.62,25.62,0,0,1,3.87-3.62,5,5,0,0,1,2.59-1.27,1.3,1.3,0,0,1,.76.16.89.89,0,0,1,.33.8,6.87,6.87,0,0,1-.81,2.27c-.51,1.07-1.15,2.32-1.91,3.78s-1.53,3-2.3,4.67a42.69,42.69,0,0,0-1.9,4.91,15.67,15.67,0,0,0-.81,4.53,8.08,8.08,0,0,0,.81,3.66,5.4,5.4,0,0,0,2.08,2.2,5.64,5.64,0,0,0,2.9.77,8.15,8.15,0,0,0,4-1.33,25.52,25.52,0,0,0,4.49-3.48,49.34,49.34,0,0,0,4.52-4.85c1.5-1.76,2.88-3.58,4.19-5.4s2.41-3.58,3.4-5.21a2,2,0,0,0,.28-1.33,1.75,1.75,0,0,0-.53-1A1.22,1.22,0,0,0,227,115.23ZM216.33,87.59a69.4,69.4,0,0,0-8.17.53c-2.77.32-5.52.73-8.24,1.21s-5.32.93-7.84,1.4a19.77,19.77,0,0,0,.8-2.69,11,11,0,0,0,.28-2.25c0-2.42-.58-4.16-1.66-5.23A4.9,4.9,0,0,0,187,79.39a21.35,21.35,0,0,1-1,5.71,70.1,70.1,0,0,1-2.63,7.08,14.18,14.18,0,0,1-1.54.1c-.48,0-.94,0-1.37,0a35.39,35.39,0,0,1-9-1,12.65,12.65,0,0,1-5.8-3,6.78,6.78,0,0,1-2-4.95,9.64,9.64,0,0,1,1-4.26,16.92,16.92,0,0,1,2.5-3.71,9.33,9.33,0,0,0-2.73,1.09,10.66,10.66,0,0,0-4.58,5.34A11.64,11.64,0,0,0,159,86a7.21,7.21,0,0,0,2.18,5.18,13.87,13.87,0,0,0,6.15,3.3A35.06,35.06,0,0,0,177,95.68a38.47,38.47,0,0,0,5.07-.36c-1.45,3.13-3,6.34-4.6,9.63s-3.14,6.49-4.59,9.63-2.61,6.06-3.52,8.75a24.41,24.41,0,0,0-1.4,7,10.16,10.16,0,0,0,1,4.67,5.81,5.81,0,0,0,2.38,2.45,5.92,5.92,0,0,0,2.91.72,8.57,8.57,0,0,0,4.37-1.57,27.16,27.16,0,0,0,4.64-3.92,58.24,58.24,0,0,0,4.41-5.17c1.38-1.83,2.61-3.57,3.68-5.27a44.53,44.53,0,0,0,2.45-4.22,1.2,1.2,0,0,0,0-1.25,2.07,2.07,0,0,0-.93-.8c-.6,1.14-1.4,2.55-2.45,4.23s-2.24,3.43-3.56,5.26a62.94,62.94,0,0,1-4.1,5.17,28.92,28.92,0,0,1-4.12,3.92,6.49,6.49,0,0,1-3.62,1.56,1.17,1.17,0,0,1-1-.43,2,2,0,0,1-.34-1.25,22.07,22.07,0,0,1,1.33-6.73,70.72,70.72,0,0,1,3.33-8.23c1.38-2.93,2.84-5.92,4.41-9s3.1-6,4.55-8.86,2.71-5.56,3.76-8c2.65-.58,5.4-1.19,8.22-1.79s5.69-1.13,8.56-1.53a62.37,62.37,0,0,1,8.55-.66,30.1,30.1,0,0,1,4.73.34,19.72,19.72,0,0,1,4.67,1.24,10.82,10.82,0,0,1,3.76,2.52,6.68,6.68,0,0,0-2.32-3.16,13,13,0,0,0-4.51-2.17A23.29,23.29,0,0,0,216.33,87.59Z"/><path class="cls-1" d="M261.27,32.16a3.79,3.79,0,0,0-2.33,1.67,2.25,2.25,0,0,0,.25,2.44A7.68,7.68,0,0,1,261.75,35a8,8,0,0,1,3-.28,6.31,6.31,0,0,1,2.83,1,6,6,0,0,1,2.1,2.56,6.4,6.4,0,0,1,.55,3.8,6.64,6.64,0,0,1-2,3.59,11.93,11.93,0,0,1-4.81,2.64,35.54,35.54,0,0,1-6.49,1.17c-2.34.21-4.73.41-7.13.64A38.94,38.94,0,0,0,243,51.39,22.29,22.29,0,0,0,235.93,55a17.21,17.21,0,0,0-4.74,5.56,15,15,0,0,0-1.73,7.12A19.71,19.71,0,0,0,231.37,76a14.4,14.4,0,0,0,3.55,4.78,13.19,13.19,0,0,0,4.81,2.77,8.57,8.57,0,0,0,5,.09,4.24,4.24,0,0,0,2.05-1.4,4.4,4.4,0,0,0,.85-2.1,3.42,3.42,0,0,0-.2-2,9.49,9.49,0,0,1-3,1.34,11.1,11.1,0,0,1-4,.42,8.27,8.27,0,0,1-4.06-1.41,9.6,9.6,0,0,1-3.29-4.08,11.15,11.15,0,0,1-1-6.1,11,11,0,0,1,2.1-5.28,15.48,15.48,0,0,1,4.38-4.13,20.66,20.66,0,0,1,5.86-2.6,12.39,12.39,0,0,1,8.89.4,13.65,13.65,0,0,1,6.15,6.57,24.19,24.19,0,0,1,2.41,8.29,25.47,25.47,0,0,1-.46,8.49,26.14,26.14,0,0,1-3.13,7.88,24.89,24.89,0,0,1-5.6,6.4,23.36,23.36,0,0,1-7.79,4.13,19.79,19.79,0,0,1-10.55.57A18,18,0,0,1,226,94.35a27.5,27.5,0,0,1-5.93-8.68,29.16,29.16,0,0,1-2.15-7.51,40.3,40.3,0,0,1-.35-8.92,39.4,39.4,0,0,1,1.82-9.32,33.33,33.33,0,0,1,4.26-8.73A28.81,28.81,0,0,1,230.74,44,30.74,30.74,0,0,1,241,39.42a1.6,1.6,0,0,0-.61-1,2.89,2.89,0,0,0-1.57-.57,11,11,0,0,1-6.79-3,23.18,23.18,0,0,1-5-7.68,19,19,0,0,1-1.77-6.68,14.53,14.53,0,0,1,.73-5.89,12,12,0,0,1,2.77-4.6,10.75,10.75,0,0,1,4.51-2.71,8.43,8.43,0,0,1,4.68-.21,6.84,6.84,0,0,1,3.34,2A8.33,8.33,0,0,1,243,12.59a9.11,9.11,0,0,1,.21,3.95,6.07,6.07,0,0,0,2.54-1.31,4.25,4.25,0,0,0,1.3-2.15,4,4,0,0,0-.3-2.56,8.89,8.89,0,0,0-2.95-3.46,11.55,11.55,0,0,0-5.22-2,16.8,16.8,0,0,0-7.21.75,20,20,0,0,0-6.8,3.61,19.39,19.39,0,0,0-4.82,5.65,16.41,16.41,0,0,0-2.06,7,15.59,15.59,0,0,0,1.41,7.51,16.89,16.89,0,0,0,6.29,7.27,19.11,19.11,0,0,0,9.38,2.84,38.23,38.23,0,0,0-10.54,5.62A34.53,34.53,0,0,0,216.91,53a35.14,35.14,0,0,0-4.51,8.89,38.46,38.46,0,0,0-2,9.31,38,38,0,0,0,.33,8.91A29.78,29.78,0,0,0,213,87.84a28.26,28.26,0,0,0,7.27,9.83,23.23,23.23,0,0,0,10.31,5.15,24.15,24.15,0,0,0,12.15-.65,30.72,30.72,0,0,0,9.47-4.8,29.21,29.21,0,0,0,6.8-7.21A28.29,28.29,0,0,0,263.72,72a26.3,26.3,0,0,0-2.58-9.23,23.88,23.88,0,0,0-1.94-3.45,17.78,17.78,0,0,0-2.74-3.22,17.56,17.56,0,0,0,5.73-.58,16.8,16.8,0,0,0,5.12-2.34,13.87,13.87,0,0,0,3.77-3.91,10.88,10.88,0,0,0,1.6-5.19,13.08,13.08,0,0,0-1.3-6.19,11,11,0,0,0-4.26-5.18A7.07,7.07,0,0,0,261.27,32.16Z"/></g></g></svg>