<svg id="Layer_1" enable-background="new 0 0 511.426 511.426" height="512" viewBox="0 0 511.426 511.426" width="512" xmlns="http://www.w3.org/2000/svg"><g><g><path d="m24.636 419.016c-13.606 0-24.636-11.035-24.636-24.647v-277.312c0-13.612 11.03-24.647 24.636-24.647h462.154c13.606 0 24.636 11.035 24.636 24.647v277.312c0 13.612-11.03 24.647-24.636 24.647z" fill="#f4f1f1"/><path d="m486.79 92.41h-231.514v326.605h231.514c13.606 0 24.636-11.035 24.636-24.647v-277.311c0-13.612-11.03-24.647-24.636-24.647z" fill="#e7dfdd"/><g><g><g><path d="m223.137 247.458-215.628 164.618c4.433 4.293 10.47 6.939 17.127 6.939h462.154c6.657 0 12.693-2.646 17.126-6.939l-215.628-164.618c-19.237-14.686-45.915-14.686-65.151 0z" fill="#fff4f4"/></g></g></g><path d="m255.276 236.452v182.563h231.514c6.657 0 12.693-2.646 17.126-6.939l-215.628-164.618c-9.74-7.436-21.388-11.1-33.012-11.006z" fill="#f4f1f1"/><g><path d="m288.289 263.968 215.628-164.618c-4.433-4.293-10.47-6.939-17.127-6.939h-462.155c-6.657 0-12.693 2.646-17.126 6.939l215.629 164.619c19.236 14.685 45.914 14.685 65.151-.001z" fill="#fff4f4"/></g><path d="m255.276 92.41v182.563c11.624.094 23.273-3.569 33.013-11.006l215.628-164.617c-4.433-4.293-10.47-6.94-17.127-6.94z" fill="#f4f1f1"/></g><path d="m311.964 261.143h-.004c33.832-40.556-21.214-88.062-56.302-53.111-38.243-36.322-88.959 15.791-56.303 53.111.56.586 34.389 35.945 49.338 51.57 3.8 3.971 10.129 3.972 13.929.001 14.808-15.477 48.064-50.236 49.342-51.571z" fill="#ff0059"/><path d="m255.713 207.835v107.71c2.514-.014 5.023-1.004 6.909-2.976 14.808-15.477 48.064-50.235 49.342-51.571h-.003c33.814-40.534-21.158-88.01-56.248-53.163z" fill="#c1126b"/></g></svg>